<svg xmlns="http://www.w3.org/2000/svg" viewBox="0 0 1487.66 434.17"><defs><style>.cls-1{font-size:244.34px;font-family:ErasITC-Bold, Eras Bold ITC;}.cls-1,.cls-5{fill:#e95452;}.cls-2{fill:#51b9ad;}.cls-3{fill:#fff;}.cls-4{fill:#d4ad66;}.cls-6{fill:#e1cec4;}.cls-7{fill:#736c67;}</style></defs><title>taskwix-logo</title><g id="Layer_2" data-name="Layer 2"><g id="Layer_1-2" data-name="Layer 1"><text class="cls-1" transform="translate(488.34 291.98)">Taskwiz</text><circle class="cls-2" cx="217.09" cy="217.09" r="217.09"/><rect class="cls-3" x="117.14" y="102.58" width="201.96" height="241.11" rx="12" ry="12"/><path class="cls-2" d="M141.39,167.15l13.16,12.9a2.58,2.58,0,0,0,3.6,0l31.73-30.73a2.58,2.58,0,0,1,3.51-.08l1.05.93a2.58,2.58,0,0,1,.11,3.76l-36.47,36.47a2.58,2.58,0,0,1-3.67,0L136.5,172.05a2.58,2.58,0,0,1,0-3.62l1.24-1.25A2.58,2.58,0,0,1,141.39,167.15Z"/><path class="cls-2" d="M142.88,219.94,156,232.85a2.58,2.58,0,0,0,3.6,0l31.73-30.73a2.58,2.58,0,0,1,3.51-.08l1.05.93a2.58,2.58,0,0,1,.11,3.76l-36.47,36.47a2.58,2.58,0,0,1-3.67,0L138,224.84a2.58,2.58,0,0,1,0-3.62l1.24-1.25A2.58,2.58,0,0,1,142.88,219.94Z"/><path class="cls-2" d="M141.39,271.84l13.16,12.9a2.58,2.58,0,0,0,3.6,0L189.89,254a2.58,2.58,0,0,1,3.51-.08l1.05.93a2.58,2.58,0,0,1,.11,3.76l-36.47,36.47a2.58,2.58,0,0,1-3.67,0L136.5,276.74a2.58,2.58,0,0,1,0-3.62l1.24-1.25A2.58,2.58,0,0,1,141.39,271.84Z"/><rect class="cls-2" x="205.67" y="166.19" width="102.02" height="6.52" rx="2.03" ry="2.03"/><rect class="cls-2" x="205.67" y="219.57" width="102.02" height="6.52" rx="2.03" ry="2.03"/><rect class="cls-2" x="205.67" y="272.66" width="102.02" height="6.52" rx="2.03" ry="2.03"/><polygon class="cls-4" points="256.14 340.33 318.42 277.61 339.92 299.7 278.24 362.13 256.14 340.33"/><path class="cls-5" d="M312.39,283.61l20.12-20.26a2.9,2.9,0,0,1,4.14,0L354.1,281.3a2.9,2.9,0,0,1,0,4.07L338.8,300.84Z"/><polygon class="cls-6" points="256.14 340.33 278.24 362.13 252.16 368.15 249.38 365.93 256.14 340.33"/><polyline class="cls-7" points="249.38 365.93 252.16 368.15 244.48 374.16"/></g></g></svg>